HIERARCHY
ROOT Hips
{
	OFFSET 0.000000 1.471914 24.280096
	CHANNELS 6 Xposition Yposition Zposition Xrotation Yrotation Zrotation
	JOINT Spine
	{
		OFFSET 0.000000 0.900110 1.860670
		CHANNELS 6 Xposition Yposition Zposition Xrotation Yrotation Zrotation
		JOINT Spine1
		{
			OFFSET 0.000000 0.400320 2.270309
			CHANNELS 6 Xposition Yposition Zposition Xrotation Yrotation Zrotation
			JOINT Spine2
			{
				OFFSET 0.000000 0.200920 2.296560
				CHANNELS 6 Xposition Yposition Zposition Xrotation Yrotation Zrotation
				JOINT Spine3
				{
					OFFSET 0.000000 0.000000 2.305330
					CHANNELS 6 Xposition Yposition Zposition Xrotation Yrotation Zrotation
					JOINT Neck
					{
						OFFSET 0.000000 -0.864490 6.051487
						CHANNELS 6 Xposition Yposition Zposition Xrotation Yrotation Zrotation
						JOINT Head
						{
							OFFSET 0.000000 -0.550429 3.121674
							CHANNELS 6 Xposition Yposition Zposition Xrotation Yrotation Zrotation
							End Site
							{
								OFFSET 0.000000 0.000000 3.731750
							}
						}
					}
					JOINT RightShoulder
					{
						OFFSET -0.788280 -1.313800 4.256718
						CHANNELS 6 Xposition Yposition Zposition Xrotation Yrotation Zrotation
						JOINT RightArm
						{
							OFFSET -3.915130 0.000000 0.000000
							CHANNELS 6 Xposition Yposition Zposition Xrotation Yrotation Zrotation
							JOINT RightForeArm
							{
								OFFSET -6.914910 0.000000 0.000000
								CHANNELS 6 Xposition Yposition Zposition Xrotation Yrotation Zrotation
								JOINT RightHand
								{
									OFFSET -6.096219 0.000000 0.000000
									CHANNELS 6 Xposition Yposition Zposition Xrotation Yrotation Zrotation
									JOINT RightHandEnd
									{
										OFFSET -1.749950 0.000000 0.000000
										CHANNELS 6 Xposition Yposition Zposition Xrotation Yrotation Zrotation
										End Site
										{
											OFFSET -1.749950 0.000000 0.000000
										}
									}
									JOINT RightHandThumb1
									{
										OFFSET -0.699980 -1.166630 -0.466648
										CHANNELS 6 Xposition Yposition Zposition Xrotation Yrotation Zrotation
										End Site
										{
											OFFSET -1.690319 -0.452920 0.000000
										}
									}
								}
							}
						}
					}
					JOINT LeftShoulder
					{
						OFFSET 0.788280 -1.313800 4.256718
						CHANNELS 6 Xposition Yposition Zposition Xrotation Yrotation Zrotation
						JOINT LeftArm
						{
							OFFSET 3.915130 0.000000 0.000000
							CHANNELS 6 Xposition Yposition Zposition Xrotation Yrotation Zrotation
							JOINT LeftForeArm
							{
								OFFSET 6.914910 0.000000 0.000000
								CHANNELS 6 Xposition Yposition Zposition Xrotation Yrotation Zrotation
								JOINT LeftHand
								{
									OFFSET 6.096219 0.000000 0.000000
									CHANNELS 6 Xposition Yposition Zposition Xrotation Yrotation Zrotation
									JOINT LeftHandEnd
									{
										OFFSET 1.749950 0.000000 0.000000
										CHANNELS 6 Xposition Yposition Zposition Xrotation Yrotation Zrotation
										End Site
										{
											OFFSET 1.749950 0.000000 0.000000
										}
									}
									JOINT LeftHandThumb1
									{
										OFFSET 0.699980 -1.166630 -0.466648
										CHANNELS 6 Xposition Yposition Zposition Xrotation Yrotation Zrotation
										End Site
										{
											OFFSET 1.690319 -0.452920 0.000000
										}
									}
								}
							}
						}
					}
				}
			}
		}
	}
	JOINT RightUpLeg
	{
		OFFSET -2.338570 -0.252550 -0.551512
		CHANNELS 6 Xposition Yposition Zposition Xrotation Yrotation Zrotation
		JOINT RightLeg
		{
			OFFSET 0.000000 0.000000 -10.744959
			CHANNELS 6 Xposition Yposition Zposition Xrotation Yrotation Zrotation
			JOINT RightFoot
			{
				OFFSET 0.000000 -0.000001 -10.930849
				CHANNELS 6 Xposition Yposition Zposition Xrotation Yrotation Zrotation
				JOINT RightToeBase
				{
					OFFSET 0.000000 -4.087269 -1.487650
					CHANNELS 6 Xposition Yposition Zposition Xrotation Yrotation Zrotation
					End Site
					{
						OFFSET 0.000000 -1.891870 0.000000
					}
				}
			}
		}
	}
	JOINT LeftUpLeg
	{
		OFFSET 2.338570 -0.252550 -0.551512
		CHANNELS 6 Xposition Yposition Zposition Xrotation Yrotation Zrotation
		JOINT LeftLeg
		{
			OFFSET 0.000000 0.000000 -10.744959
			CHANNELS 6 Xposition Yposition Zposition Xrotation Yrotation Zrotation
			JOINT LeftFoot
			{
				OFFSET 0.000000 -0.000001 -10.930849
				CHANNELS 6 Xposition Yposition Zposition Xrotation Yrotation Zrotation
				JOINT LeftToeBase
				{
					OFFSET 0.000000 -4.087269 -1.487650
					CHANNELS 6 Xposition Yposition Zposition Xrotation Yrotation Zrotation
					End Site
					{
						OFFSET 0.000000 -1.891870 0.000000
					}
				}
			}
		}
	}
}
MOTION
Frames: 4
Frame Time: 0.041667
0.000003 26.844866 33.831310 2.006096 -8.522954 74.714572 -0.000005 0.900096 1.860706 12.921594 -3.982838 0.392429 0.000004 0.400248 2.270325 0.000003 -0.000001 0.000014 0.000013 0.200900 2.296570 0.000001 0.000002 -0.000000 0.000020 0.000021 2.305314 -0.000014 -0.000002 1.714608 -0.000022 -0.864467 6.051427 -7.635523 4.834216 -178.621290 0.000037 -0.550417 3.121670 -0.000009 -0.000002 -0.000005 -0.788277 -1.313730 4.256846 -178.130705 57.330224 -21.436083 -3.915145 -0.000027 0.000004 -0.000002 0.000001 0.000003 -6.914901 -0.000016 0.000004 0.000004 0.000008 -79.995900 -6.096183 0.000033 0.000040 -0.000055 -0.000012 -0.000073 -1.749884 -0.000053 0.000022 0.000002 0.000002 -0.000003 -0.699979 -1.166613 -0.466655 -0.000014 -0.000005 -0.000007 0.788254 -1.313749 4.256781 -125.842001 -53.799921 66.350718 3.915165 0.000011 -0.000030 0.000003 0.000001 0.000004 6.914956 -0.000063 0.000007 0.000000 0.000002 52.067628 6.096246 0.000142 -0.000031 0.000019 0.000001 0.000025 1.749987 0.000003 0.000063 -0.000013 -0.000002 0.000001 0.699961 -1.166630 -0.466616 0.000015 -0.000000 -0.000028 -2.338590 -0.252546 -0.551496 -60.737129 -4.835638 -1.544503 0.000013 -0.000026 -10.744958 99.734812 -14.638540 -4.032880 -0.000020 0.000080 -10.930835 0.000010 -0.000008 -0.000004 0.000004 -4.087234 -1.487633 0.000000 0.000001 0.000000 2.338573 -0.252525 -0.551487 -55.216048 1.834330 -1.431843 0.000001 -0.000022 -10.744919 91.571410 -0.839992 2.827072 0.000006 0.000014 -10.930867 -0.000014 -0.000004 0.000000 -0.000029 -4.087199 -1.487641 -0.000004 0.000003 -0.000000 
0.000030 26.844860 33.831322 2.388876 -8.465720 74.542041 -0.000007 0.900095 1.860710 12.802052 -3.709480 0.346163 0.000007 0.400250 2.270330 0.000003 -0.000000 0.000013 0.000012 0.200900 2.296574 0.000001 0.000001 0.000001 0.000020 0.000021 2.305310 -0.000013 -0.000003 1.712960 -0.000022 -0.864470 6.051416 -7.292189 4.962210 -178.548918 0.000041 -0.550416 3.121662 -0.000008 -0.000001 -0.000006 -0.788279 -1.313730 4.256838 -179.190983 57.395801 -20.749777 -3.915143 -0.000030 0.000004 -0.000002 -0.000003 -0.000000 -6.914907 -0.000015 -0.000004 0.000005 0.000007 -79.834441 -6.096182 0.000033 0.000032 -0.000053 -0.000014 -0.000073 -1.749887 -0.000056 0.000023 0.000002 0.000000 -0.000004 -0.699981 -1.166615 -0.466655 -0.000007 -0.000006 -0.000007 0.788251 -1.313751 4.256783 -126.754856 -53.862076 66.302716 3.915166 0.000012 -0.000038 0.000005 0.000000 0.000004 6.914956 -0.000060 0.000010 0.000001 0.000000 52.533198 6.096245 0.000140 -0.000027 0.000015 0.000000 0.000021 1.749992 0.000007 0.000067 -0.000007 -0.000000 0.000004 0.699966 -1.166625 -0.466618 0.000012 0.000002 -0.000033 -2.338594 -0.252545 -0.551499 -61.255267 -4.477339 -1.382813 0.000012 -0.000025 -10.744960 99.820851 -13.362457 -3.757811 -0.000022 0.000083 -10.930834 0.000009 -0.000005 0.000001 0.000017 -4.087234 -1.487633 0.000006 -0.000000 -0.000001 2.338569 -0.252526 -0.551491 -55.333668 1.789118 -1.275002 0.000002 -0.000024 -10.744919 91.236690 -0.434803 2.670116 0.000005 0.000014 -10.930866 -0.000009 -0.000006 -0.000001 -0.000027 -4.087199 -1.487639 -0.000005 0.000002 -0.000000 
0.000022 26.844862 33.831310 2.327740 -8.431180 74.408504 -0.000005 0.900098 1.860707 12.706907 -4.046698 0.274733 0.000005 0.400248 2.270323 0.000003 -0.000002 0.000010 0.000010 0.200899 2.296570 0.000000 0.000002 0.000000 0.000018 0.000021 2.305306 -0.000015 0.000002 2.043149 -0.000017 -0.864470 6.051419 -7.301880 5.779407 -178.233459 0.000039 -0.550416 3.121662 -0.000008 -0.000002 -0.000006 -0.788277 -1.313731 4.256837 -177.507000 57.963909 -22.218064 -3.915144 -0.000028 0.000003 -0.000003 -0.000002 0.000002 -6.914904 -0.000015 0.000004 0.000006 0.000007 -79.050075 -6.096183 0.000037 0.000040 -0.000053 -0.000012 -0.000073 -1.749889 -0.000059 0.000018 -0.000000 0.000001 -0.000003 -0.699982 -1.166614 -0.466660 -0.000014 -0.000003 -0.000008 0.788255 -1.313752 4.256781 -126.152651 -53.427642 66.843230 3.915164 0.000012 -0.000038 0.000003 -0.000001 0.000004 6.914954 -0.000057 0.000007 0.000005 0.000004 51.785781 6.096243 0.000140 -0.000035 0.000012 -0.000003 0.000022 1.749990 0.000003 0.000070 -0.000007 -0.000007 -0.000003 0.699964 -1.166623 -0.466620 0.000010 -0.000001 -0.000032 -2.338591 -0.252544 -0.551499 -61.423522 -4.556778 -1.109223 0.000014 -0.000029 -10.744960 100.158727 -13.268264 -3.987439 -0.000021 0.000081 -10.930835 0.000007 -0.000007 -0.000001 0.000014 -4.087234 -1.487632 0.000002 0.000003 0.000001 2.338573 -0.252524 -0.551492 -55.223971 1.669474 -1.015267 -0.000002 -0.000023 -10.744921 91.410163 -0.905009 2.374292 0.000004 0.000012 -10.930862 -0.000015 -0.000003 0.000000 -0.000028 -4.087200 -1.487639 -0.000002 0.000000 -0.000000 
0.000023 26.844862 33.831299 2.091530 -8.035564 73.934325 -0.000005 0.900098 1.860708 12.375964 -4.506746 0.295353 0.000006 0.400248 2.270326 0.000002 -0.000001 0.000012 0.000012 0.200900 2.296570 0.000000 0.000001 0.000003 0.000018 0.000021 2.305314 -0.000015 -0.000001 2.180131 -0.000018 -0.864471 6.051425 -7.439585 6.337397 -178.980763 0.000039 -0.550417 3.121662 -0.000008 -0.000002 -0.000006 -0.788273 -1.313733 4.256843 -175.621990 58.743049 -24.033703 -3.915147 -0.000030 0.000004 -0.000004 -0.000001 0.000003 -6.914911 -0.000016 -0.000003 0.000006 0.000009 -78.936435 -6.096182 0.000037 0.000037 -0.000052 -0.000010 -0.000073 -1.749889 -0.000054 0.000024 -0.000000 0.000001 -0.000002 -0.699982 -1.166610 -0.466650 -0.000009 -0.000004 -0.000006 0.788255 -1.313753 4.256782 -126.370521 -54.155149 66.585035 3.915170 0.000012 -0.000038 0.000006 0.000000 0.000003 6.914956 -0.000061 0.000007 0.000002 -0.000001 51.939473 6.096245 0.000138 -0.000024 0.000019 0.000000 0.000026 1.749988 0.000010 0.000066 -0.000003 -0.000003 0.000001 0.699960 -1.166614 -0.466619 0.000020 -0.000001 -0.000027 -2.338593 -0.252543 -0.551502 -61.955000 -4.855397 -1.228684 0.000012 -0.000026 -10.744962 100.177681 -12.857735 -4.230069 -0.000020 0.000084 -10.930837 0.000007 -0.000006 -0.000002 0.000011 -4.087233 -1.487632 0.000000 0.000003 0.000004 2.338572 -0.252526 -0.551494 -55.362792 1.648546 -1.122907 0.000002 -0.000024 -10.744922 90.929216 -1.094128 2.424331 0.000004 0.000015 -10.930866 -0.000012 -0.000004 -0.000001 -0.000031 -4.087199 -1.487637 -0.000004 0.000002 -0.000001 
